<?xml version="1.0" standalone="no"?>
<!DOCTYPE svg PUBLIC "-//W3C//DTD SVG 20010904//EN"
 "http://www.w3.org/TR/2001/REC-SVG-20010904/DTD/svg10.dtd">
<svg version="1.0" xmlns="http://www.w3.org/2000/svg" viewBox="0 0 350.000000 225.000000"
 preserveAspectRatio="xMidYMid meet">
<g transform="translate(0.000000,225.000000) scale(0.100000,-0.100000)"
fill="#000000" stroke="none">
<path d="M1128 2160 c-326 -68 -479 -130 -642 -260 -86 -68 -133 -123 -218
-255 -167 -259 -220 -417 -221 -655 0 -174 53 -294 185 -415 81 -76 155 -120
260 -156 126 -43 218 -50 472 -39 265 12 417 31 551 67 179 48 203 36 234
-118 18 -91 41 -150 75 -194 l15 -20 1 20 c0 11 5 73 10 139 11 151 38 214
104 245 54 27 103 27 288 0 141 -20 151 -20 243 -5 168 29 330 90 439 165 22
16 98 85 167 153 99 97 137 142 178 211 112 191 171 336 171 416 0 68 -30 166
-85 277 -63 127 -111 180 -202 221 -76 35 -214 42 -560 29 -320 -12 -363 -7
-624 74 -281 87 -416 117 -569 123 -124 6 -146 4 -272 -23z m527 -41 c66 -16
185 -50 265 -74 174 -53 293 -82 377 -91 35 -4 188 -1 340 6 501 22 580 -5
697 -243 49 -100 76 -191 76 -257 0 -89 -81 -274 -196 -447 -75 -113 -283
-305 -392 -361 -93 -48 -212 -87 -337 -109 -91 -16 -98 -16 -256 7 -94 13
-182 20 -210 17 -129 -16 -185 -96 -196 -281 -4 -56 -9 -83 -14 -73 -9 15 -31
109 -43 179 -9 49 -49 95 -93 107 -29 8 -54 5 -140 -19 -142 -40 -276 -57
-552 -70 -248 -12 -311 -9 -429 21 -153 39 -321 155 -397 274 -62 98 -79 157
-79 285 1 234 48 375 210 630 122 192 208 274 383 364 111 57 229 96 406 135
77 16 149 32 160 35 11 3 83 2 160 0 108 -4 167 -12 260 -35z"/>
<path d="M1690 1864 c-78 -102 -88 -104 -89 -27 -1 17 -5 34 -9 37 -5 3 -37
-53 -72 -125 l-64 -129 -47 0 c-60 0 -86 -21 -109 -89 -18 -53 -18 -54 7 -127
l25 -74 -31 -47 c-37 -56 -39 -80 -7 -94 21 -10 23 -14 13 -45 -11 -37 -27
-36 -27 2 0 52 -17 18 -55 -113 -53 -180 -53 -182 -1 -83 47 90 46 90 68 21 2
-8 29 42 61 110 52 114 59 125 89 132 18 5 37 13 42 18 6 5 17 -3 28 -21 43
-72 110 -1 84 90 -5 21 -1 28 24 45 79 52 50 174 -53 227 -23 11 -44 22 -46
24 -6 5 42 114 51 114 4 0 8 -15 9 -32 1 -82 13 -70 102 107 48 96 86 175 84
175 -1 0 -36 -43 -77 -96z m-167 -302 c67 -29 103 -68 113 -119 7 -35 4 -40
-36 -75 -43 -38 -43 -38 -30 -77 20 -61 -18 -114 -40 -56 -13 33 -34 40 -62
21 -12 -9 -34 -16 -49 -16 -15 0 -32 -7 -39 -15 -16 -19 -80 -20 -80 -2 0 7
14 32 32 56 l31 43 -26 80 c-24 75 -25 81 -11 123 9 24 21 48 27 53 33 27 85
22 170 -16z"/>
<path d="M1864 1670 c-83 -41 -124 -78 -133 -121 -5 -21 -3 -80 5 -145 16
-123 8 -194 -27 -250 -48 -78 -89 -88 -237 -55 -75 16 -84 16 -90 3 -9 -26 33
-85 82 -116 42 -27 55 -29 127 -29 99 1 169 32 229 100 57 65 63 96 48 255 -7
73 -12 143 -10 155 3 22 4 22 45 -8 23 -16 50 -29 62 -27 17 3 20 10 19 49 -2
45 -1 47 42 67 30 15 46 30 50 48 8 33 -2 52 -46 82 -45 30 -94 28 -166 -8z
m167 -26 c10 -9 19 -22 19 -29 0 -24 -41 -49 -83 -51 -23 -1 -43 -2 -45 -3 -1
-1 7 -19 18 -42 12 -22 20 -45 18 -50 -2 -6 -24 6 -50 25 -26 20 -50 36 -53
36 -3 0 -13 -16 -21 -36 -13 -30 -13 -52 -5 -127 10 -90 14 -154 12 -210 -1
-34 -85 -127 -136 -151 -39 -19 -175 -22 -208 -5 -26 13 -77 60 -77 70 0 3 28
0 63 -7 34 -7 86 -13 116 -14 52 0 57 2 101 48 38 39 51 62 65 116 16 60 17
78 7 155 -7 49 -12 112 -12 140 0 62 19 84 114 132 68 34 122 35 157 3z"/>
<path d="M2174 1490 c-32 -60 -61 -107 -65 -105 -4 3 -13 28 -19 56 -8 34 -15
47 -20 38 -13 -23 -150 -388 -150 -399 0 -31 32 1 85 84 33 52 63 93 66 90 4
-2 10 -22 14 -44 4 -22 10 -42 15 -45 4 -2 27 50 50 118 23 67 57 163 76 214
26 73 30 92 19 97 -10 3 -32 -29 -71 -104z"/>
<path d="M978 1550 c-23 -18 -35 -20 -73 -15 -41 7 -45 5 -54 -18 -5 -14 -7
-34 -4 -45 4 -16 -1 -23 -20 -27 -14 -4 -35 -17 -46 -29 -19 -20 -20 -27 -10
-50 11 -24 10 -28 -9 -42 -14 -9 -22 -26 -22 -42 0 -46 12 -54 71 -50 63 4 69
-6 43 -67 l-16 -40 -22 43 -21 42 -67 -200 c-43 -130 -63 -202 -56 -206 14 -9
28 10 90 125 l51 95 21 -42 c11 -23 23 -42 26 -42 4 0 28 50 55 110 44 102 50
110 76 110 19 0 35 10 53 32 22 29 27 31 50 20 35 -16 56 -5 63 30 3 18 15 33
28 38 47 18 46 70 -3 170 -42 84 -71 110 -133 117 -35 4 -50 0 -71 -17z"/>
<path d="M476 1528 c-7 -18 -16 -41 -19 -50 -5 -14 -18 -18 -57 -18 -40 0 -50
-3 -50 -16 0 -14 8 -16 46 -11 l46 5 -7 -37 c-9 -47 -21 -61 -56 -61 -20 0
-29 -5 -29 -16 0 -13 7 -15 30 -10 l31 6 -7 -60 c-5 -43 -3 -60 5 -60 14 0 18
10 26 73 6 46 7 47 41 47 38 0 40 -7 24 -75 -10 -43 2 -69 18 -39 6 11 13 40
17 66 7 46 8 47 46 50 50 4 55 22 8 26 l-37 3 10 39 c9 35 14 39 46 42 46 4
56 28 12 28 -29 0 -32 2 -25 23 15 51 17 67 6 67 -7 0 -20 -20 -31 -45 -17
-40 -23 -45 -51 -45 -34 0 -34 3 -13 78 10 35 -15 27 -30 -10z"/>
<path d="M2993 1532 c-7 -4 -24 -48 -38 -97 -15 -50 -42 -127 -62 -173 -27
-63 -34 -91 -29 -116 12 -63 85 -73 125 -17 34 48 102 241 108 309 5 51 3 66
-12 82 -18 20 -69 27 -92 12z m71 -82 c0 -39 -13 -89 -42 -170 -43 -117 -77
-168 -106 -157 -30 12 -29 52 3 121 17 36 42 105 56 154 15 48 28 93 31 100 2
8 15 12 31 10 27 -3 28 -5 27 -58z"/>
<path d="M2800 1454 c-28 -42 -50 -82 -50 -88 0 -7 -18 -42 -40 -79 -48 -80
-72 -164 -49 -178 32 -20 66 -9 107 35 50 54 58 70 123 236 56 144 56 150 -9
150 -29 0 -37 -7 -82 -76z"/>
<path d="M2434 1468 c-9 -32 -12 -33 -71 -38 -68 -6 -94 -22 -124 -82 -69
-135 75 -276 213 -209 82 39 102 123 48 202 -36 54 -37 59 -5 89 30 28 32 46
6 60 -36 19 -58 12 -67 -22z"/>
<path d="M2126 1079 c-14 -11 -34 -36 -44 -54 -9 -19 -61 -71 -114 -118 -92
-78 -101 -84 -143 -84 -27 0 -52 -6 -61 -15 -13 -13 -12 -17 6 -41 11 -14 29
-29 40 -32 16 -5 18 -13 13 -56 -5 -41 -3 -49 11 -49 9 0 75 61 147 134 94 98
141 138 167 147 83 26 106 62 52 80 -16 6 -30 12 -30 14 0 1 7 19 15 39 9 20
13 41 10 46 -10 16 -41 11 -69 -11z m29 -39 c-21 -41 -19 -59 10 -66 33 -8 24
-21 -25 -35 -30 -9 -69 -42 -165 -140 -69 -70 -125 -124 -125 -120 0 3 4 21 9
39 8 27 7 32 -7 32 -21 0 -62 27 -62 41 0 6 20 9 46 8 46 -3 49 -2 155 91 60
52 109 99 109 106 0 16 48 74 61 74 5 0 3 -13 -6 -30z"/>
<path d="M353 1075 c-44 -19 -93 -105 -93 -163 0 -37 6 -50 34 -78 31 -31 39
-34 96 -34 45 0 61 3 57 13 -2 7 -23 12 -55 12 -67 1 -102 30 -102 87 0 46 39
119 73 137 37 20 80 10 95 -21 16 -35 3 -92 -22 -96 -16 -3 -18 1 -12 31 13
69 -54 74 -89 6 -22 -42 -8 -55 67 -64 51 -6 57 -4 72 17 10 13 16 43 16 74 0
45 -4 56 -26 73 -31 24 -66 26 -111 6z"/>
<path d="M1665 794 c-10 -3 -457 -54 -476 -54 -5 0 -9 9 -9 20 0 17 -7 20 -45
20 l-45 0 0 -50 0 -50 -60 0 -60 0 0 -45 c0 -49 2 -50 63 -36 l37 9 0 -37 0
-36 49 3 c45 4 50 6 53 30 3 24 17 30 261 111 230 77 277 98 250 114 -5 2 -12
3 -18 1z"/>
</g>
</svg>
