<svg xmlns="http://www.w3.org/2000/svg" viewBox="-336.1619018554687 -14.209374999999994 1172.3238037109375 178.41875" style="background: rgba(0, 0, 0, 0);" preserveAspectRatio="xMidYMid"><defs>
  <filter id="editing-scratch" x="-100%" y="-100%" width="300%" height="300%">
    <!-- COLOR -->
    <feFlood flood-color="#ddd" flood-opacity="0.75" result="COLOR-blu"></feFlood>
    <feFlood flood-color="#666" flood-opacity="0.4" result="COLOR-red"></feFlood>
    <!-- COLOR END -->
    <!-- Texture -->
    <feTurbulence baseFrequency=".05" type="fractalNoise" numOctaves="3" seed="0" result="Texture_10"></feTurbulence>
    <feColorMatrix type="matrix" values="0 0 0 0 0,
    0 0 0 0 0,
    0 0 0 0 0,
    0 0 0 -2.1 1.1" in="Texture_10" result="Texture_20"></feColorMatrix>
    <feColorMatrix result="Texture_30" type="matrix" values="0 0 0 0 0,
    0 0 0 0 0,
    0 0 0 0 0,
    0 0 0 -1.7 1.8" in="Texture_10"></feColorMatrix>
    <!-- Texture -->
    <!-- FILL -->
    <feOffset dx="-3" dy="4" in="SourceAlpha" result="FILL_10"></feOffset>
    <feDisplacementMap scale="17" in="FILL_10" in2="Texture_10" result="FILL_20"></feDisplacementMap>
    <feComposite operator="in" in="Texture_30" in2="FILL_20" result="FILL_40"></feComposite>
    <feComposite operator="in" in="COLOR-blu" in2="FILL_40" result="FILL_50"></feComposite>
    <!-- FILL END-->
    <!-- OUTLINE -->
    <feMorphology operator="dilate" radius="3" in="SourceGraphic" result="OUTLINE_10"></feMorphology>
    <feComposite operator="out" in="OUTLINE_10" in2="SourceGraphic" result="OUTLINE_20"></feComposite>
    <feDisplacementMap scale="7" in="OUTLINE_20" in2="Texture_10" result="OUTLINE_30"></feDisplacementMap>
    <feComposite operator="arithmetic" k2="-1" k3="1" in="Texture_20" in2="OUTLINE_30" result="OUTLINE_40"></feComposite>
    <!-- OUTLINE END-->
    <!-- BEVEL OUTLINE -->
    <feConvolveMatrix order="8,8" divisor="1" kernelMatrix="1 0 0 0 0 0 0 0 0 1 0 0 0 0 0 0 0 0 1 0 0 0 0 0 0 0 0 1 0 0 0 0 0 0 0 0 1 0 0 0 0 0 0 0 0 1 0 0 0 0 0 0 0 0 1 0 0 0 0 0 0 0 0 1 " in="SourceGraphic" result="BEVEL_10"></feConvolveMatrix>
    <feMorphology operator="dilate" radius="2" in="BEVEL_10" result="BEVEL_20"></feMorphology>
    <feComposite operator="out" in="BEVEL_20" in2="BEVEL_10" result="BEVEL_30"></feComposite>
    <feDisplacementMap scale="7" in="BEVEL_30" in2="Texture_10" result="BEVEL_40"></feDisplacementMap>
    <feComposite operator="arithmetic" k2="-1" k3="1" in="Texture_20" in2="BEVEL_40" result="BEVEL_50"></feComposite>
    <feOffset dx="-7" dy="-7" in="BEVEL_50" result="BEVEL_60"></feOffset>
    <feComposite operator="out" in="BEVEL_60" in2="OUTLINE_10" result="BEVEL_70"></feComposite>
    <!-- BEVEL OUTLINE END -->
    <!-- BEVEL FILL -->
    <feOffset dx="-9" dy="-9" in="BEVEL_10" result="BEVEL-FILL_10"></feOffset>
    <feComposite operator="out" in="BEVEL-FILL_10" in2="OUTLINE_10" result="BEVEL-FILL_20"></feComposite>
    <feDisplacementMap scale="17" in="BEVEL-FILL_20" in2="Texture_10" result="BEVEL-FILL_30"></feDisplacementMap>
    <feComposite operator="in" in="COLOR-red" in2="BEVEL-FILL_30" result="BEVEL-FILL_50"></feComposite> <!-- -->
    <!-- BEVEL FILL END-->
    <feMerge result="merge2">
     <feMergeNode in="BEVEL-FILL_50"></feMergeNode>
     <feMergeNode in="BEVEL_70"></feMergeNode>
     <feMergeNode in="FILL_50"></feMergeNode>
      <feMergeNode in="OUTLINE_40"></feMergeNode>
    </feMerge>
  </filter>
</defs>
<g filter="url(#editing-scratch)"><g transform="translate(-175.18281269073486, 120.7890625)"><path d="M9.70-48.70L9.70-48.70L9.70-48.70Q6.30-51.30 6.30-56.85L6.30-56.85L6.30-56.85Q6.30-62.40 9.95-65.30L9.95-65.30L9.95-65.30Q13.60-68.20 19.90-68.20L19.90-68.20L19.90-68.20Q23.90-68.20 33.40-66.80L33.40-66.80L40.20-65.80L40.20-65.80Q43.60-65.40 47.15-65.40L47.15-65.40L47.15-65.40Q50.70-65.40 53.10-66.90L53.10-66.90L53.10-66.90Q56.70-63.70 56.70-59.10L56.70-59.10L56.70-59.10Q56.70-54.50 52.60-51.20L52.60-51.20L52.60-51.20Q48.40-47.70 43-47.70L43-47.70L43-47.70Q40.40-47.70 36.20-48.40L36.20-48.40L36.20-48.40Q31.30-33 31.30-22.30L31.30-22.30L31.30-22.30Q31.30-11.60 36.70-6L36.70-6L36.70-6Q34.20-1.50 30.50 0.25L30.50 0.25L30.50 0.25Q26.80 2 21.25 2L21.25 2L21.25 2Q15.70 2 12.25-1.05L12.25-1.05L12.25-1.05Q8.80-4.10 8.80-10.40L8.80-10.40L8.80-10.40Q8.80-17.70 12.80-29.70L12.80-29.70L12.80-29.70Q16.80-41.60 22.80-50.70L22.80-50.70L22.80-50.70Q19.90-51 16.90-51L16.90-51L16.90-51Q10.70-51 9.70-48.70ZM103.80-11.10L103.80-11.10L103.80-11.10Q103.80-6.70 108.30-5.40L108.30-5.40L108.30-5.40Q107.20-1.70 102.90 0.30L102.90 0.30L102.90 0.30Q99.30 2 95.35 2L95.35 2L95.35 2Q91.40 2 89.35 0.95L89.35 0.95L89.35 0.95Q87.30-0.10 86.20-1.80L86.20-1.80L86.20-1.80Q84.40-4.40 84.40-9.30L84.40-9.30L84.40-9.30Q84.40-12.20 86-20.20L86-20.20L87.40-27.80L87.40-27.80Q89.10-36.50 89.10-39.70L89.10-39.70L89.10-39.70Q89.10-45.30 86-45.30L86-45.30L86-45.30Q82.10-45.30 79.60-39.60L79.60-39.60L79.60-39.60Q78.60-37.40 77.90-34.10L77.90-34.10L71.10 0L51.00 2L65.10-70L85.20-72L84.40-68L84.40-68Q81.60-52.60 79.20-47.40L79.20-47.40L79.20-47.40Q84.80-53 95.10-53L95.10-53L95.10-53Q106-53 108-45.80L108-45.80L108-45.80Q108.70-43.50 108.70-41.50L108.70-41.50L108.70-41.50Q108.70-39.50 108.55-37.95L108.55-37.95L108.55-37.95Q108.40-36.40 107.90-33.60L107.90-33.60L106.60-26.40L104.30-15.10L104.30-15.10Q103.80-12.80 103.80-11.10ZM156.90-16.90L156.90-16.90L156.90-16.90Q159.40-15.20 159.40-11.45L159.40-11.45L159.40-11.45Q159.40-7.70 157.50-5.30L157.50-5.30L157.50-5.30Q155.60-2.90 152.50-1.30L152.50-1.30L152.50-1.30Q146.10 2 139.20 2L139.20 2L139.20 2Q132.30 2 128.25 0.50L128.25 0.50L128.25 0.50Q124.20-1 121.50-3.80L121.50-3.80L121.50-3.80Q116.20-9.10 116.20-18.80L116.20-18.80L116.20-18.80Q116.20-33.90 124.40-43.10L124.40-43.10L124.40-43.10Q133.20-53 148.50-53L148.50-53L148.50-53Q158.00-53 162.70-49L162.70-49L162.70-49Q166.20-46 166.20-41.10L166.20-41.10L166.20-41.10Q166.20-23.50 135.80-23.50L135.80-23.50L135.80-23.50Q135.40-20.90 135.40-18.70L135.40-18.70L135.40-18.70Q135.40-14.10 137.45-12.35L137.45-12.35L137.45-12.35Q139.50-10.60 143.30-10.60L143.30-10.60L143.30-10.60Q147.10-10.60 151.15-12.35L151.15-12.35L151.15-12.35Q155.20-14.10 156.90-16.90ZM136.50-27.80L136.50-27.80L136.50-27.80Q143.60-27.80 147.70-32.20L147.70-32.20L147.70-32.20Q151.80-36.40 151.80-43.10L151.80-43.10L151.80-43.10Q151.80-45.40 150.95-46.65L150.95-46.65L150.95-46.65Q150.10-47.90 148.40-47.90L148.40-47.90L148.40-47.90Q146.70-47.90 145.25-47.25L145.25-47.25L145.25-47.25Q143.80-46.60 142.30-44.40L142.30-44.40L142.30-44.40Q138.60-39.40 136.50-27.80ZM234.10 2L234.10 2L234.10 2Q221.30 2 220.10-16.20L220.10-16.20L202.90-16.20L202.90-16.20Q200.90-11.60 199.50-7.60L199.50-7.60L196.90 0L182.90 0L214.40-66L235.90-66L240.10-17.40L240.10-17.40Q241.10-6.90 245.10-3.80L245.10-3.80L245.10-3.80Q242.20 2 234.10 2ZM211.50-36.20L206.00-23.50L219.80-23.50L218.60-49.20L218.60-51.90L211.50-36.20ZM249.60-4.80L249.60-4.80L262.00-70L282.30-72L279.20-56.70L279.20-56.70Q278.10-52 276.70-48.70L276.70-48.70L276.70-48.70Q278.90-51.50 283.70-52.60L283.70-52.60L283.70-52.60Q285.10-53 286.80-53L286.80-53L286.80-53Q296.10-53 301.20-47.35L301.20-47.35L301.20-47.35Q306.30-41.70 306.30-30.80L306.30-30.80L306.30-30.80Q306.30-16.60 298.20-7.70L298.20-7.70L298.20-7.70Q289.50 2 273.70 2L273.70 2L273.70 2Q262.80 2 254.60-1.60L254.60-1.60L254.60-1.60Q251.70-2.90 249.60-4.80ZM275.00-35L269.70-5.70L269.70-5.70Q271.80-3.90 274.40-3.90L274.40-3.90L274.40-3.90Q277.00-3.90 278.50-4.90L278.50-4.90L278.50-4.90Q280.00-5.90 281.10-7.90L281.10-7.90L281.10-7.90Q284.10-13.30 286.50-29.80L286.50-29.80L286.50-29.80Q287.20-34.50 287.20-39.20L287.20-39.20L287.20-39.20Q287.20-43.90 286.15-45.40L286.15-45.40L286.15-45.40Q285.10-46.90 283.10-46.90L283.10-46.90L283.10-46.90Q277.00-46.90 275.00-35L275.00-35ZM344.40-4.20L344.40-4.20L344.40-4.20Q339.60 2 327.70 2L327.70 2L327.70 2Q321.50 2 317-1.75L317-1.75L317-1.75Q312.50-5.50 312.50-10.90L312.50-10.90L312.50-10.90Q312.50-13.90 312.80-15.40L312.80-15.40L319.50-51L339.80-53L332.50-14.40L332.50-14.40Q332.10-12.20 332.10-10.90L332.10-10.90L332.10-10.90Q332.10-5.10 335.60-5.10L335.60-5.10L335.60-5.10Q339.50-5.10 342.30-10.40L342.30-10.40L342.30-10.40Q343.20-12.10 343.60-14.30L343.60-14.30L350.70-51L370.40-53L363-14L363-14Q362.70-12.50 362.70-10.90L362.70-10.90L362.70-10.90Q362.70-9.30 363.60-7.55L363.60-7.55L363.60-7.55Q364.50-5.80 367.40-5.40L367.40-5.40L367.40-5.40Q366.80-3 364.70-1.40L364.70-1.40L364.70-1.40Q360.30 2 355.55 2L355.55 2L355.55 2Q350.80 2 348 0.30L348 0.30L348 0.30Q345.20-1.40 344.40-4.20ZM405.70-35.10L405.70-35.10L405.70-35.10Q407.10-38.80 407.10-42L407.10-42L407.10-42Q407.10-47.90 402.30-47.90L402.30-47.90L402.30-47.90Q399.80-47.90 397.75-45.65L397.75-45.65L397.75-45.65Q395.70-43.40 395.70-40.60L395.70-40.60L395.70-40.60Q395.70-38.60 397.30-37L397.30-37L397.30-37Q399.60-34.80 405.50-31.20L405.50-31.20L405.50-31.20Q411.40-27.60 413.65-24.65L413.65-24.65L413.65-24.65Q415.90-21.70 415.90-17.65L415.90-17.65L415.90-17.65Q415.90-13.60 413.95-9.90L413.95-9.90L413.95-9.90Q412-6.20 408.50-3.60L408.50-3.60L408.50-3.60Q401 2 389 2L389 2L389 2Q382.50 2 377.50-1.40L377.50-1.40L377.50-1.40Q372.50-4.70 372.50-8.60L372.50-8.60L372.50-8.60Q372.50-12.50 375.35-14.80L375.35-14.80L375.35-14.80Q378.20-17.10 382.40-17.10L382.40-17.10L382.40-17.10Q386.60-17.10 389.20-15.50L389.20-15.50L389.20-15.50Q387.90-12.20 387.90-10L387.90-10L387.90-10Q387.90-3.40 393.50-3.40L393.50-3.40L393.50-3.40Q395.90-3.40 397.50-4.90L397.50-4.90L397.50-4.90Q399.10-6.40 399.10-9L399.10-9L399.10-9Q399.10-14.10 390.50-19.50L390.50-19.50L390.50-19.50Q383.50-24.10 381.90-25.90L381.90-25.90L381.90-25.90Q379.20-29.10 379.20-33.10L379.20-33.10L379.20-33.10Q379.20-37.10 381.10-40.90L381.10-40.90L381.10-40.90Q383-44.70 386.50-47.40L386.50-47.40L386.50-47.40Q393.80-53 406.50-53L406.50-53L406.50-53Q413-53 416.85-50.40L416.85-50.40L416.85-50.40Q420.70-47.80 420.70-43.40L420.70-43.40L420.70-43.40Q420.70-39 418.05-36.50L418.05-36.50L418.05-36.50Q415.40-34 410.60-34L410.60-34L410.60-34Q407.30-34 405.70-35.10ZM464.90-16.90L464.90-16.90L464.90-16.90Q467.40-15.20 467.40-11.45L467.40-11.45L467.40-11.45Q467.40-7.70 465.50-5.30L465.50-5.30L465.50-5.30Q463.60-2.90 460.50-1.30L460.50-1.30L460.50-1.30Q454.10 2 447.20 2L447.20 2L447.20 2Q440.30 2 436.25 0.50L436.25 0.50L436.25 0.50Q432.20-1 429.50-3.80L429.50-3.80L429.50-3.80Q424.20-9.10 424.20-18.80L424.20-18.80L424.20-18.80Q424.20-33.90 432.40-43.10L432.40-43.10L432.40-43.10Q441.20-53 456.50-53L456.50-53L456.50-53Q466.00-53 470.70-49L470.70-49L470.70-49Q474.20-46 474.20-41.10L474.20-41.10L474.20-41.10Q474.20-23.50 443.80-23.50L443.80-23.50L443.80-23.50Q443.40-20.90 443.40-18.70L443.40-18.70L443.40-18.70Q443.40-14.10 445.45-12.35L445.45-12.35L445.45-12.35Q447.50-10.60 451.30-10.60L451.30-10.60L451.30-10.60Q455.10-10.60 459.15-12.35L459.15-12.35L459.15-12.35Q463.20-14.10 464.90-16.90ZM444.50-27.80L444.50-27.80L444.50-27.80Q451.60-27.80 455.70-32.20L455.70-32.20L455.70-32.20Q459.80-36.40 459.80-43.10L459.80-43.10L459.80-43.10Q459.80-45.40 458.95-46.65L458.95-46.65L458.95-46.65Q458.10-47.90 456.40-47.90L456.40-47.90L456.40-47.90Q454.70-47.90 453.25-47.25L453.25-47.25L453.25-47.25Q451.80-46.60 450.30-44.40L450.30-44.40L450.30-44.40Q446.60-39.40 444.50-27.80ZM537.30-66.70L537.30-66.70L537.30-66.70Q561.80-66.70 561.80-49.40L561.80-49.40L561.80-49.40Q561.80-39.90 555.70-34.20L555.70-34.20L555.70-34.20Q549.70-28.50 539.20-28.50L539.20-28.50L539.20-28.50Q534.30-28.50 530.50-31.30L530.50-31.30L530.50-31.30Q528.70-32.50 527.50-34.10L527.50-34.10L527.50-34.10Q534.80-34.10 538.65-38.55L538.65-38.55L538.65-38.55Q542.50-43 542.50-51.70L542.50-51.70L542.50-51.70Q542.50-60.40 533.90-60.40L533.90-60.40L531.50-60.40L531.50-60.40Q530.90-60.40 530.40-60.30L530.40-60.30L518.90 0L497.20 0L509.50-65.50L509.50-65.50Q520.20-66.50 526.40-66.60L526.40-66.60L526.40-66.60Q532.60-66.70 537.30-66.70ZM593.60-28.10L593.60-28.10L593.60-28.10Q597.20-34.50 597.20-41L597.20-41L597.20-41Q597.20-45.30 594.10-45.30L594.10-45.30L594.10-45.30Q591.70-45.30 589.20-41.20L589.20-41.20L589.20-41.20Q586.60-37.10 585.80-31.80L585.80-31.80L580.60 0L559.90 2L570.10-51L586.60-53L584.80-42.90L584.80-42.90Q589.70-53 600.70-53L600.70-53L600.70-53Q606.50-53 609.65-50L609.65-50L609.65-50Q612.80-47 612.80-40.85L612.80-40.85L612.80-40.85Q612.80-34.70 608.75-30.80L608.75-30.80L608.75-30.80Q604.70-26.90 597.80-26.90L597.80-26.90L597.80-26.90Q594.80-26.90 593.60-28.10ZM636.20 2L636.20 2L636.20 2Q614.20 2 614.20-18.70L614.20-18.70L614.20-18.70Q614.20-33.40 622.30-42.90L622.30-42.90L622.30-42.90Q630.90-53 645.80-53L645.80-53L645.80-53Q656.60-53 662.10-48L662.10-48L662.10-48Q667.60-43 667.60-32.50L667.60-32.50L667.60-32.50Q667.60-16.50 659-7.20L659-7.20L659-7.20Q650.60 2 636.20 2ZM638.80-41.50L638.80-41.50L638.80-41.50Q637.60-38.80 636.65-34.75L636.65-34.75L636.65-34.75Q635.70-30.70 634.50-24.30L634.50-24.30L634.50-24.30Q633.30-17.90 633.30-10L633.30-10L633.30-10Q633.30-7.40 634.15-5.70L634.15-5.70L634.15-5.70Q635-4 637.30-4L637.30-4L637.30-4Q639.60-4 641.05-5.10L641.05-5.10L641.05-5.10Q642.50-6.20 643.60-8.80L643.60-8.80L643.60-8.80Q645.60-13.40 647.20-21.95L647.20-21.95L647.20-21.95Q648.80-30.50 648.95-34.20L648.95-34.20L648.95-34.20Q649.10-37.90 649.10-40.65L649.10-40.65L649.10-40.65Q649.10-43.40 648.30-45.20L648.30-45.20L648.30-45.20Q647.50-47 645.25-47L645.25-47L645.25-47Q643-47 641.50-45.60L641.50-45.60L641.50-45.60Q640-44.20 638.80-41.50ZM659.60 11.90L659.60 11.90L659.60 11.90Q664.80 11.50 668.60 5L668.60 5L668.60 5Q671.50 0 673.40-9.20L673.40-9.20L681.50-51L701.60-53L693.10-9.20L693.10-9.20Q689.80 7.50 684.70 13L684.70 13L684.70 13Q682.00 16 678.50 17L678.50 17L678.50 17Q675.00 18 671.00 18L671.00 18L671.00 18Q662.60 18 659.60 11.90ZM683.10-64.90L683.10-64.90L683.10-64.90Q683.10-68.80 686.35-70.90L686.35-70.90L686.35-70.90Q689.60-73 694.30-73L694.30-73L694.30-73Q699.00-73 701.85-70.90L701.85-70.90L701.85-70.90Q704.70-68.80 704.70-64.90L704.70-64.90L704.70-64.90Q704.70-61 701.55-59L701.55-59L701.55-59Q698.40-57 693.70-57L693.70-57L693.70-57Q689.00-57 686.05-59L686.05-59L686.05-59Q683.10-61 683.10-64.90ZM745.70-16.90L745.70-16.90L745.70-16.90Q748.20-15.20 748.20-11.45L748.20-11.45L748.20-11.45Q748.20-7.70 746.30-5.30L746.30-5.30L746.30-5.30Q744.40-2.90 741.30-1.30L741.30-1.30L741.30-1.30Q734.90 2 728.00 2L728.00 2L728.00 2Q721.10 2 717.05 0.50L717.05 0.50L717.05 0.50Q713.00-1 710.30-3.80L710.30-3.80L710.30-3.80Q705.00-9.10 705.00-18.80L705.00-18.80L705.00-18.80Q705.00-33.90 713.20-43.10L713.20-43.10L713.20-43.10Q722.00-53 737.30-53L737.30-53L737.30-53Q746.80-53 751.50-49L751.50-49L751.50-49Q755.00-46 755.00-41.10L755.00-41.10L755.00-41.10Q755.00-23.50 724.60-23.50L724.60-23.50L724.60-23.50Q724.20-20.90 724.20-18.70L724.20-18.70L724.20-18.70Q724.20-14.10 726.25-12.35L726.25-12.35L726.25-12.35Q728.30-10.60 732.10-10.60L732.10-10.60L732.10-10.60Q735.90-10.60 739.95-12.35L739.95-12.35L739.95-12.35Q744.00-14.10 745.70-16.90ZM725.30-27.80L725.30-27.80L725.30-27.80Q732.40-27.80 736.50-32.20L736.50-32.20L736.50-32.20Q740.60-36.40 740.60-43.10L740.60-43.10L740.60-43.10Q740.60-45.40 739.75-46.65L739.75-46.65L739.75-46.65Q738.90-47.90 737.20-47.90L737.20-47.90L737.20-47.90Q735.50-47.90 734.05-47.25L734.05-47.25L734.05-47.25Q732.60-46.60 731.10-44.40L731.10-44.40L731.10-44.40Q727.40-39.40 725.30-27.80ZM807.50-41.60L807.50-41.60L807.50-41.60Q807.50-37.40 804.00-34.80L804.00-34.80L804.00-34.80Q800.50-32.20 794.80-32.20L794.80-32.20L794.80-32.20Q792.40-32.20 791.00-32.90L791.00-32.90L791.00-32.90Q792.10-35.50 792.45-38.75L792.45-38.75L792.45-38.75Q792.80-42 792.80-42.90L792.80-42.90L792.80-42.90Q792.80-47.10 789.90-47.10L789.90-47.10L789.90-47.10Q787.90-47.10 785.65-44.60L785.65-44.60L785.65-44.60Q783.40-42.10 781.50-38.20L781.50-38.20L781.50-38.20Q777.30-29.20 777.30-20.10L777.30-20.10L777.30-20.10Q777.30-15.10 779.20-12.85L779.20-12.85L779.20-12.85Q781.10-10.60 785.30-10.60L785.30-10.60L785.30-10.60Q791.10-10.60 795.70-15.40L795.70-15.40L795.70-15.40Q797.00-16.90 797.70-18.60L797.70-18.60L797.70-18.60Q801.50-16.60 801.50-11.10L801.50-11.10L801.50-11.10Q801.50-5.50 795.30-1.80L795.30-1.80L795.30-1.80Q788.90 2 778.70 2L778.70 2L778.70 2Q758.40 2 758.40-19.50L758.40-19.50L758.40-19.50Q758.40-35.20 767.30-44.20L767.30-44.20L767.30-44.20Q775.90-53 791.70-53L791.70-53L791.70-53Q807.50-53 807.50-41.60ZM811.80-10L811.80-10L811.80-10Q811.80-12.70 813.20-19.50L813.20-19.50L818.50-46.50L812.60-46.50L813.00-49.50L813.00-49.50Q825.00-53.10 836.60-61.90L836.60-61.90L841.40-61.90L839.00-51L846.80-51L845.90-46.50L838.20-46.50L833.10-19.50L833.10-19.50Q831.80-13.30 831.80-11.20L831.80-11.20L831.80-11.20Q831.80-6.40 836.00-5.40L836.00-5.40L836.00-5.40Q835.00-2 831.40 0L831.40 0L831.40 0Q827.80 2 822.70 2L822.70 2L822.70 2Q817.60 2 814.70-1.20L814.70-1.20L814.70-1.20Q811.80-4.40 811.80-10Z" fill="#000"></path></g></g><style>text {
  font-size: 64px;
  font-family: Arial Black;
  dominant-baseline: central;
  text-anchor: middle;
}</style></svg>